<svg width="91" height="73" viewBox="0 0 91 73" fill="none" xmlns="http://www.w3.org/2000/svg">
<path id="Vector" d="M14.4552 56.1296C15.7575 51.6854 22.4444 29.7126 22.4444 29.7126C22.4444 29.7126 25.731 47.6236 24.8628 49.7837C24.0642 51.6329 23.1208 53.4161 22.0413 55.1167C14.4552 66.6612 15.4474 72.4386 15.4474 72.4386L61.2843 71.0433C61.3876 64.6355 57.5946 49.732 56.8091 47.3549C56.0236 44.9778 58.6385 37.1953 58.6385 37.1953C58.6385 37.1953 63.8061 31.9347 63.6201 29.2268C63.5219 26.7945 63.2211 24.3745 62.7209 21.9922L90.6261 23.0257L89.7476 4.11215L49.6675 0.102058C48.2722 4.03979 35.6528 2.1071 35.6528 2.1071C22.031 2.56185 21.1835 5.063 15.5197 9.46582C9.85602 13.8686 0.481934 51.6544 0.481934 51.6544L14.4552 56.1296Z" fill="#4CAF4F"/>
</svg>
